<svg width="21" height="23" viewBox="0 0 21 23" fill="none" xmlns="http://www.w3.org/2000/svg">
<path d="M17.9122 2.50945H16.7973V1.39458C16.7973 0.781406 16.2956 0.279716 15.6824 0.279716C15.0693 0.279716 14.5676 0.781406 14.5676 1.39458V2.50945H5.64865V1.39458C5.64865 0.781406 5.14696 0.279716 4.53378 0.279716C3.92061 0.279716 3.41892 0.781406 3.41892 1.39458V2.50945H2.30406C1.06656 2.50945 0.0854742 3.51282 0.0854742 4.73918L0.0743256 20.3473C0.0743256 20.9386 0.309243 21.5058 0.727398 21.9239C1.14555 22.3421 1.71269 22.577 2.30406 22.577H17.9122C19.1385 22.577 20.1419 21.5736 20.1419 20.3473V4.73918C20.1419 3.51282 19.1385 2.50945 17.9122 2.50945ZM17.9122 19.2324C17.9122 19.8456 17.4105 20.3473 16.7973 20.3473H3.41892C2.80574 20.3473 2.30406 19.8456 2.30406 19.2324V8.08377H17.9122V19.2324ZM4.53378 10.3135H6.76351V12.5432H4.53378V10.3135ZM8.99324 10.3135H11.223V12.5432H8.99324V10.3135ZM13.4527 10.3135H15.6824V12.5432H13.4527V10.3135Z" fill="#FF7000"/>
</svg>
