<svg width="13" height="17" viewBox="0 0 13 17" fill="none" xmlns="http://www.w3.org/2000/svg">
<mask id="path-1-inside-1_1407_6071" fill="white">
<path fill-rule="evenodd" clip-rule="evenodd" d="M0.345062 1.5662L1.19785 0.713409H11.4313L12.2841 1.5662V16.7074L6.3146 13.1699L0.345062 16.7074V1.5662ZM2.05064 2.41899V13.7143L6.3146 11.1874L10.5785 13.7143V2.41899H2.05064Z"/>
</mask>
<path fill-rule="evenodd" clip-rule="evenodd" d="M0.345062 1.5662L1.19785 0.713409H11.4313L12.2841 1.5662V16.7074L6.3146 13.1699L0.345062 16.7074V1.5662ZM2.05064 2.41899V13.7143L6.3146 11.1874L10.5785 13.7143V2.41899H2.05064Z" fill="#FF7000"/>
<path d="M0.345062 1.5662L-1.4227 -0.201567L-2.15494 0.530666V1.5662H0.345062ZM1.19785 0.713409V-1.78659H0.162319L-0.569914 -1.05436L1.19785 0.713409ZM11.4313 0.713409L13.1991 -1.05436L12.4669 -1.78659H11.4313V0.713409ZM12.2841 1.5662H14.7841V0.530666L14.0519 -0.201567L12.2841 1.5662ZM12.2841 16.7074L11.0096 18.8582L14.7841 21.0949V16.7074H12.2841ZM6.3146 13.1699L7.5891 11.0192L6.3146 10.264L5.04009 11.0192L6.3146 13.1699ZM0.345062 16.7074H-2.15494V21.0949L1.61957 18.8582L0.345062 16.7074ZM2.05064 2.41899V-0.0810094H-0.449357V2.41899H2.05064ZM2.05064 13.7143H-0.449357V18.1018L3.32518 15.865L2.05064 13.7143ZM6.3146 11.1874L7.58914 9.03667L6.3146 8.28137L5.04006 9.03667L6.3146 11.1874ZM10.5785 13.7143L9.30401 15.865L13.0785 18.1018V13.7143H10.5785ZM10.5785 2.41899H13.0785V-0.0810094H10.5785V2.41899ZM2.11283 3.33397L2.96562 2.48118L-0.569914 -1.05436L-1.4227 -0.201567L2.11283 3.33397ZM1.19785 3.21341H11.4313V-1.78659H1.19785V3.21341ZM9.66357 2.48118L10.5164 3.33397L14.0519 -0.201567L13.1991 -1.05436L9.66357 2.48118ZM9.78413 1.5662V16.7074H14.7841V1.5662H9.78413ZM13.5586 14.5567L7.5891 11.0192L5.04009 15.3207L11.0096 18.8582L13.5586 14.5567ZM5.04009 11.0192L-0.929441 14.5567L1.61957 18.8582L7.5891 15.3207L5.04009 11.0192ZM2.84506 16.7074V1.5662H-2.15494V16.7074H2.84506ZM-0.449357 2.41899V13.7143H4.55064V2.41899H-0.449357ZM3.32518 15.865L7.58914 13.3381L5.04006 9.03667L0.776105 11.5635L3.32518 15.865ZM5.04006 13.3381L9.30401 15.865L11.8531 11.5635L7.58914 9.03667L5.04006 13.3381ZM13.0785 13.7143V2.41899H8.07855V13.7143H13.0785ZM10.5785 -0.0810094H2.05064V4.91899H10.5785V-0.0810094Z" fill="#FF7000" fill-opacity="0.69" mask="url(#path-1-inside-1_1407_6071)"/>
</svg>
