<svg width="20" height="19" viewBox="0 0 20 19" fill="none" xmlns="http://www.w3.org/2000/svg">
<path d="M10 0.0995388C15.0627 0.0995388 19.1667 4.20346 19.1667 9.2662C19.1667 14.329 15.0627 18.4329 10 18.4329C4.93725 18.4329 0.833334 14.329 0.833334 9.2662C0.833334 4.20346 4.93725 0.0995388 10 0.0995388ZM10 1.93287C8.05508 1.93287 6.18982 2.70549 4.81455 4.08076C3.43928 5.45602 2.66667 7.32128 2.66667 9.2662C2.66667 11.2111 3.43928 13.0764 4.81455 14.4517C6.18982 15.8269 8.05508 16.5995 10 16.5995C11.9449 16.5995 13.8102 15.8269 15.1855 14.4517C16.5607 13.0764 17.3333 11.2111 17.3333 9.2662C17.3333 7.32128 16.5607 5.45602 15.1855 4.08076C13.8102 2.70549 11.9449 1.93287 10 1.93287ZM10 3.76621C10.2245 3.76623 10.4412 3.84866 10.609 3.99786C10.7768 4.14706 10.884 4.35264 10.9103 4.57562L10.9167 4.68287V8.88671L13.3981 11.3681C13.5625 11.5331 13.6579 11.7544 13.665 11.9872C13.6722 12.22 13.5904 12.4468 13.4364 12.6215C13.2823 12.7961 13.0676 12.9057 12.8357 12.9277C12.6039 12.9498 12.3723 12.8828 12.1881 12.7404L12.1019 12.6643L9.35192 9.91429C9.20945 9.7717 9.11795 9.58612 9.09158 9.38629L9.08333 9.2662V4.68287C9.08333 4.43976 9.17991 4.2066 9.35182 4.03469C9.52373 3.86278 9.75689 3.76621 10 3.76621Z" fill="#FF7000"/>
</svg>
