<svg width="17" height="17" viewBox="0 0 17 17" fill="none" xmlns="http://www.w3.org/2000/svg">
<path d="M11.6359 9.01311L10.9886 9.52459L11.7416 9.86175C12.9252 10.3918 13.9309 11.2151 14.6533 12.2406C15.3756 13.2658 15.7884 14.4552 15.8503 15.6814L15.8502 15.6814L15.851 15.6924C15.8547 15.7432 15.8477 15.7947 15.8299 15.844C15.8121 15.8935 15.7833 15.9408 15.744 15.9827C15.7045 16.0247 15.6552 16.0603 15.598 16.0861C15.5407 16.1119 15.4776 16.1271 15.4124 16.13C15.3472 16.1329 15.2825 16.1234 15.2223 16.1025C15.1622 16.0816 15.1087 16.0501 15.0646 16.0111C15.0204 15.9722 14.9866 15.9268 14.9636 15.8784C14.9407 15.8301 14.9287 15.7792 14.9274 15.7283L14.9275 15.7282L14.9269 15.7164C14.8501 14.1749 14.1498 12.7266 12.9806 11.6699C11.8121 10.6139 10.2644 10.0287 8.65972 10.0287C7.055 10.0287 5.50731 10.6139 4.33886 11.6699C3.17138 12.725 2.47144 14.1705 2.39289 15.7093C2.38463 15.8067 2.33668 15.9037 2.24947 15.9773C2.1601 16.0527 2.03802 16.0955 1.90901 16.0898C1.78007 16.0841 1.66412 16.0308 1.5841 15.9494C1.50624 15.8702 1.46827 15.7712 1.46948 15.674C1.53245 14.4505 1.94476 13.2639 2.66541 12.2407C3.38767 11.2152 4.39314 10.3918 5.57665 9.86173L6.32948 9.52454L5.68226 9.01311C4.95232 8.4363 4.43179 7.66393 4.18632 6.80363C3.94095 5.94368 3.98099 5.03335 4.30162 4.19494C4.62242 3.35613 5.21003 2.62652 5.98946 2.10867C6.76919 1.59062 7.70137 1.311 8.65908 1.311C9.61679 1.311 10.549 1.59062 11.3287 2.10867C12.1081 2.62652 12.6957 3.35613 13.0165 4.19494C13.3372 5.03335 13.3772 5.94368 13.1318 6.80363C12.8864 7.66393 12.3658 8.4363 11.6359 9.01311ZM12.3676 5.66979C12.3676 4.72218 11.97 3.81923 11.2719 3.15788C10.5747 2.49739 9.63465 2.13073 8.65972 2.13073C7.68478 2.13073 6.7447 2.49739 6.04752 3.15788C5.34942 3.81923 4.95182 4.72219 4.95182 5.66979C4.95182 6.6174 5.34942 7.52035 6.04752 8.18171C6.7447 8.8422 7.68478 9.20886 8.65972 9.20886C9.63465 9.20886 10.5747 8.8422 11.2719 8.18171C11.97 7.52035 12.3676 6.6174 12.3676 5.66979Z" fill="#FF7000" stroke="black"/>
</svg>
