<svg width="21" height="18" viewBox="0 0 21 18" fill="none" xmlns="http://www.w3.org/2000/svg">
<path d="M15.1815 0.687004C13.455 0.687004 11.9227 1.36849 10.8846 2.53982C9.84649 1.36849 8.31422 0.687004 6.58774 0.687004C5.08402 0.688823 3.64242 1.28698 2.57913 2.35027C1.51584 3.41356 0.917682 4.85516 0.915863 6.35888C0.915863 12.5756 10.0089 17.5428 10.3956 17.7516C10.5459 17.8325 10.7139 17.8749 10.8846 17.8749C11.0553 17.8749 11.2233 17.8325 11.3736 17.7516C11.7603 17.5428 20.8534 12.5756 20.8534 6.35888C20.8515 4.85516 20.2534 3.41356 19.1901 2.35027C18.1268 1.28698 16.6852 0.688823 15.1815 0.687004ZM14.7097 12.9211C13.5128 13.9367 12.2334 14.8508 10.8846 15.6539C9.53587 14.8508 8.25641 13.9367 7.05954 12.9211C5.19727 11.3235 2.97836 8.88716 2.97836 6.35888C2.97836 5.40161 3.35864 4.48355 4.03552 3.80667C4.71241 3.12978 5.63047 2.7495 6.58774 2.7495C8.11743 2.7495 9.39789 3.55732 9.92985 4.85841C10.0073 5.04808 10.1394 5.21039 10.3095 5.32465C10.4795 5.4389 10.6797 5.49992 10.8846 5.49992C11.0895 5.49992 11.2897 5.4389 11.4597 5.32465C11.6298 5.21039 11.762 5.04808 11.8394 4.85841C12.3713 3.55732 13.6518 2.7495 15.1815 2.7495C16.1388 2.7495 17.0568 3.12978 17.7337 3.80667C18.4106 4.48355 18.7909 5.40161 18.7909 6.35888C18.7909 8.88716 16.572 11.3235 14.7097 12.9211Z" fill="#FF7000"/>
</svg>
