<svg width="21" height="25" viewBox="0 0 21 25" fill="none" xmlns="http://www.w3.org/2000/svg">
<path d="M10.3784 13.327C12.2255 13.327 13.723 11.8296 13.723 9.98242C13.723 8.13525 12.2255 6.63783 10.3784 6.63783C8.53121 6.63783 7.03378 8.13525 7.03378 9.98242C7.03378 11.8296 8.53121 13.327 10.3784 13.327Z" stroke="#FF7000" stroke-width="2" stroke-linecap="round" stroke-linejoin="round"/>
<path d="M10.3784 1.0635C8.01293 1.0635 5.74437 2.00317 4.07175 3.67579C2.39913 5.34841 1.45946 7.61697 1.45946 9.98242C1.45946 12.0917 1.90763 13.4719 3.13176 14.9993L10.3784 23.3608L17.625 14.9993C18.8491 13.4719 19.2973 12.0917 19.2973 9.98242C19.2973 7.61697 18.3576 5.34841 16.685 3.67579C15.0124 2.00317 12.7438 1.0635 10.3784 1.0635Z" stroke="#FF7000" stroke-width="2" stroke-linecap="round" stroke-linejoin="round"/>
</svg>
