<svg width="15" height="15" viewBox="0 0 15 15" fill="none" xmlns="http://www.w3.org/2000/svg">
<path d="M13.9921 6.41622H8.58935V1.01344C8.58935 0.774621 8.49448 0.545585 8.32561 0.376716C8.15674 0.207846 7.9277 0.112976 7.68889 0.112976C7.45007 0.112976 7.22103 0.207846 7.05216 0.376716C6.88329 0.545585 6.78842 0.774621 6.78842 1.01344V6.41622H1.38565C1.14683 6.41622 0.917793 6.51109 0.748923 6.67996C0.580054 6.84883 0.485184 7.07786 0.485184 7.31668C0.485184 7.5555 0.580054 7.78453 0.748923 7.9534C0.917793 8.12227 1.14683 8.21714 1.38565 8.21714H6.78842V13.6199C6.78842 13.8587 6.88329 14.0878 7.05216 14.2566C7.22103 14.4255 7.45007 14.5204 7.68889 14.5204C7.9277 14.5204 8.15674 14.4255 8.32561 14.2566C8.49448 14.0878 8.58935 13.8587 8.58935 13.6199V8.21714H13.9921C14.2309 8.21714 14.46 8.12227 14.6289 7.9534C14.7977 7.78453 14.8926 7.5555 14.8926 7.31668C14.8926 7.07786 14.7977 6.84883 14.6289 6.67996C14.46 6.51109 14.2309 6.41622 13.9921 6.41622Z" fill="#FF7000"/>
</svg>
