<svg width="16" height="18" viewBox="0 0 16 18" fill="none" xmlns="http://www.w3.org/2000/svg">
<path d="M12.7108 12.2248C12.0708 12.2248 11.4981 12.4709 11.0602 12.8565L5.05604 9.45176C5.09814 9.26306 5.13182 9.07437 5.13182 8.87746C5.13182 8.68056 5.09814 8.49186 5.05604 8.30317L10.9929 4.93122C11.4476 5.34143 12.0455 5.59577 12.7108 5.59577C14.1087 5.59577 15.2371 4.4964 15.2371 3.13449C15.2371 1.77259 14.1087 0.673218 12.7108 0.673218C11.3129 0.673218 10.1845 1.77259 10.1845 3.13449C10.1845 3.33139 10.2181 3.52009 10.2602 3.70879L4.3234 7.08073C3.86867 6.67052 3.27077 6.41619 2.60551 6.41619C1.20761 6.41619 0.0791931 7.51556 0.0791931 8.87746C0.0791931 10.2394 1.20761 11.3387 2.60551 11.3387C3.27077 11.3387 3.86867 11.0844 4.3234 10.6742L10.3192 14.0872C10.2771 14.2594 10.2518 14.4399 10.2518 14.6204C10.2518 15.9413 11.355 17.0161 12.7108 17.0161C14.0666 17.0161 15.1697 15.9413 15.1697 14.6204C15.1697 13.2996 14.0666 12.2248 12.7108 12.2248Z" fill="#FF7000"/>
<path d="M10.8136 13.2915L11.1234 13.4671L11.3907 13.2318C11.7455 12.9193 12.203 12.7248 12.7108 12.7248C13.8028 12.7248 14.6697 13.5879 14.6697 14.6204C14.6697 15.653 13.8028 16.5161 12.7108 16.5161C11.6188 16.5161 10.7518 15.653 10.7518 14.6204C10.7518 14.4859 10.7708 14.3455 10.8049 14.2059L10.8945 13.8393L10.5665 13.6526L4.57075 10.2397L4.25676 10.0609L3.98849 10.3029C3.61984 10.6355 3.13948 10.8387 2.60551 10.8387C1.47138 10.8387 0.579193 9.95101 0.579193 8.87746C0.579193 7.80392 1.47138 6.91619 2.60551 6.91619C3.13948 6.91619 3.61984 7.11944 3.98849 7.452L4.25649 7.69376L4.57034 7.5155L10.5072 4.14356L10.8288 3.96089L10.7482 3.5999C10.7086 3.42234 10.6845 3.27607 10.6845 3.13449C10.6845 2.06094 11.5766 1.17322 12.7108 1.17322C13.8449 1.17322 14.7371 2.06094 14.7371 3.13449C14.7371 4.20804 13.8449 5.09577 12.7108 5.09577C12.1768 5.09577 11.6964 4.89252 11.3278 4.55996L11.0598 4.3182L10.7459 4.49645L4.8091 7.8684L4.48749 8.05107L4.56804 8.41206C4.60766 8.58961 4.63182 8.73588 4.63182 8.87746C4.63182 9.01905 4.60766 9.16531 4.56804 9.34287L4.48743 9.70412L4.8094 9.8867L10.8136 13.2915Z" stroke="#FF7000" stroke-opacity="0.69"/>
</svg>
