<svg width="135" height="126" viewBox="0 0 135 126" fill="none" xmlns="http://www.w3.org/2000/svg">
<ellipse cx="67.5" cy="63" rx="67.5" ry="63" fill="#D9D9D9"/>
<path d="M68 73C57.4331 73 48.036 78.1021 42.0533 86.0199C40.7657 87.724 40.1219 88.5761 40.1429 89.7276C40.1592 90.6173 40.7179 91.7396 41.4179 92.289C42.324 93 43.5796 93 46.0908 93H89.9092C92.4204 93 93.676 93 94.5821 92.289C95.2821 91.7396 95.8408 90.6173 95.8571 89.7276C95.8781 88.5761 95.2343 87.724 93.9467 86.0199C87.964 78.1021 78.5669 73 68 73Z" stroke="black" stroke-width="2" stroke-linecap="round" stroke-linejoin="round"/>
<path d="M68 63C76.2843 63 83 56.2843 83 48C83 39.7157 76.2843 33 68 33C59.7157 33 53 39.7157 53 48C53 56.2843 59.7157 63 68 63Z" stroke="black" stroke-width="2" stroke-linecap="round" stroke-linejoin="round"/>
</svg>
